Coordinates
version=1
nRows=24
nColumns=26
inDegrees=yes

Units are S.I. units (second, meters, Newtons, ...)
Angles are in degrees.

endheader
time	pelvis_tilt	pelvis_list	pelvis_rotation	pelvis_tx	pelvis_ty	pelvis_tz	hip_flexion_r	hip_adduction_r	hip_rotation_r	knee_angle_r	knee_angle_r_beta	ankle_angle_r	subtalar_angle_r	mtp_angle_r	hip_flexion_l	hip_adduction_l	hip_rotation_l	knee_angle_l	knee_angle_l_beta	ankle_angle_l	subtalar_angle_l	mtp_angle_l	lumbar_extension	lumbar_bending	lumbar_rotation
     30.63316327	     -6.91615394	      4.84994876	     -1.50591515	      0.10280781	      0.87732785	      0.25783692	     -1.23458450	      2.13187291	      7.06869705	     28.89878464	     28.89878464	      8.12224394	    -14.48623646	      0.00000000	     42.30196095	      2.30954326	     -0.63513638	     79.84315266	     79.84315266	      1.79431697	    -13.55925881	      0.00000000	     -6.50223931	     -6.25056182	     14.09380186
     30.64316327	     -7.35618173	      5.96462369	     -1.16714132	      0.10637193	      0.88385715	      0.25693719	     -3.62993181	      0.33792454	      5.77740409	     26.13534047	     26.13534047	      3.04287337	    -13.55694148	      0.00000000	     42.39296898	      3.93186939	     -1.02065892	     73.61818450	     73.61818450	      2.21880155	    -12.42557987	      0.00000000	     -5.38098724	     -7.68540660	     14.72333911
     30.65316327	     -7.48178203	      6.77207128	     -0.93458394	      0.11013842	      0.89056705	      0.25616226	     -6.32380306	     -1.00444825	      4.76900138	     23.21758380	     23.21758380	     -2.71011109	    -12.84900269	      0.00000000	     41.74493902	      5.22601659	     -1.32533779	     66.82987172	     66.82987172	      2.02411590	    -12.36014412	      0.00000000	     -4.67760884	     -8.76971836	     15.47697951
     30.66316327	     -7.83195229	      7.45387110	     -0.70448881	      0.11397865	      0.89660929	      0.25531015	     -8.36989924	     -2.21979305	      3.28909192	     20.88130833	     20.88130833	     -8.40417427	    -11.67287061	      0.00000000	     41.02605921	      6.41776115	     -1.41674792	     59.66823528	     59.66823528	      1.70765486	    -12.20912636	      0.00000000	     -3.68535225	     -9.66063355	     16.16552747
     30.67316327	     -8.27628705	      7.62162748	     -0.53030150	      0.11755001	      0.90173177	      0.25479692	     -9.96594415	     -2.77012253	      2.14546693	     19.14529405	     19.14529405	    -13.24447649	    -10.56522183	      0.00000000	     40.23483720	      7.10938346	     -0.96352472	     52.56095384	     52.56095384	      1.80941463	    -11.35558745	      0.00000000	     -2.54294492	     -9.98285121	     17.05726340
     30.68316327	     -8.04110039	      7.53895804	     -0.68202747	      0.12112575	      0.90746053	      0.25471502	    -12.17829936	     -2.88907779	      2.37479167	     17.64433422	     17.64433422	    -17.55357315	    -10.71648048	      0.00000000	     38.37274790	      7.54502344	     -0.19538314	     45.11275869	     45.11275869	      1.56364787	    -11.06659951	      0.00000000	     -2.46355724	     -9.85902854	     17.65547054
     30.69316327	     -8.13861344	      7.03888966	     -0.72589252	      0.12390634	      0.91124865	      0.25479745	    -13.46576456	     -2.45454321	      3.00261793	     17.58248702	     17.58248702	    -19.63213910	    -11.23078010	      0.00000000	     37.00016962	      7.56352191	      1.04158816	     38.25547947	     38.25547947	      1.76621535	     -9.91984198	      0.00000000	     -1.98926281	     -9.40438380	     18.15253080
     30.70316327	     -8.33977765	      6.45922058	     -0.86460228	      0.12633985	      0.91397935	      0.25478995	    -14.05500015	     -1.89875975	      3.95390432	     18.80846694	     18.80846694	    -20.37233088	    -12.15687923	      0.00000000	     35.71871078	      7.43134944	      2.43147836	     31.78426665	     31.78426665	      1.88599558	     -8.77780575	      0.00000000	     -1.52069155	     -8.69175232	     18.48633806
     30.71316327	     -8.31580057	      5.93352831	     -0.87352245	      0.12836468	      0.91552292	      0.25476937	    -14.21453823	     -1.33258317	      4.40125795	     21.54714401	     21.54714401	    -21.04408883	    -14.31271043	      0.00000000	     34.31067084	      7.34293274	      4.00332400	     26.03126232	     26.03126232	      2.09159867	     -7.59604083	      0.00000000	     -1.36589690	     -8.21508949	     18.55861077
     30.72316327	     -8.21434677	      5.42302541	     -0.85746133	      0.13012299	      0.91607695	      0.25470070	    -14.04473690	     -0.76126172	      4.85180951	     25.32248340	     25.32248340	    -21.24019651	    -17.22930659	      0.00000000	     32.95216041	      7.19109698	      5.38839774	     21.17957276	     21.17957276	      2.35678600	     -6.57223273	      0.00000000	     -1.40399199	     -7.67037065	     18.50144037
     30.73316327	     -7.88406088	      4.93514238	     -0.67136363	      0.13171684	      0.91584354	      0.25457632	    -13.82261262	     -0.15872771	      5.02180502	     29.74181118	     29.74181118	    -20.61144472	    -19.78486269	      0.00000000	     31.64951609	      7.02455321	      6.17823886	     17.66209529	     17.66209529	      3.12406764	     -4.93615358	      0.00000000	     -1.81677949	     -7.26854955	     18.17971463
     30.74316327	     -7.34755234	      4.62163456	     -0.37209936	      0.13304411	      0.91504970	      0.25394983	    -13.53001871	      0.24450891	      4.99215541	     34.59722210	     34.59722210	    -20.32742184	    -22.18444913	      0.00000000	     30.35770693	      7.08447613	      6.66780407	     15.30036396	     15.30036396	      3.77343592	     -3.46113601	      0.00000000	     -2.54592196	     -6.98475219	     17.66018507
     30.75316327	     -6.45104866	      4.10228384	      0.13080000	      0.13385993	      0.91399044	      0.25304265	    -13.41862906	      0.96432293	      4.94394417	     39.67143050	     39.67143050	    -20.28276660	    -23.89937072	      0.00000000	     29.04132428	      7.08392509	      7.16443585	     14.35524284	     14.35524284	      4.14009126	     -2.44404823	      0.00000000	     -3.90623620	     -6.38857208	     16.78546197
     30.76316327	     -6.06581829	      3.94658151	      0.64472826	      0.13476829	      0.91131262	      0.25280834	    -12.42594552	      1.25727769	      4.51199639	     45.22230026	     45.22230026	    -20.32464052	    -26.01142256	      0.00000000	     28.20100338	      7.39897825	      7.83102349	     14.00827170	     14.00827170	      4.68687635	     -1.15105413	      0.00000000	     -4.55480223	     -6.49742497	     16.16814917
     30.77316327	     -5.60902152	      3.39958780	      1.24134288	      0.13553562	      0.90783534	      0.25246254	    -11.35605372	      2.02119457	      4.23098612	     50.77997494	     50.77997494	    -20.05919962	    -27.17218507	      0.00000000	     27.60777095	      7.38545595	      8.12385094	     14.96174234	     14.96174234	      5.18660844	     -0.56711401	      0.00000000	     -5.42112509	     -5.91833363	     15.42706424
     30.78316327	     -4.83037973	      2.95844480	      1.94911834	      0.13623848	      0.90348813	      0.25224070	    -10.50317478	      2.62511013	      3.52922098	     56.29915623	     56.29915623	    -19.36093974	    -27.81948073	      0.00000000	     26.66651667	      7.46525719	      8.24332390	     16.50769195	     16.50769195	      5.77439957	     -0.22190455	      0.00000000	     -6.60811819	     -5.58688399	     14.66152022
     30.79316327	     -3.95131194	      2.81415056	      2.67644713	      0.13702697	      0.89866544	      0.25207894	     -9.66041284	      2.78387390	      2.54078522	     61.67045664	     61.67045664	    -18.95431618	    -28.31045998	      0.00000000	     25.59654512	      7.76520023	      8.01632944	     18.52149551	     18.52149551	      5.60133850	     -0.50011911	      0.00000000	     -7.99279553	     -5.57133079	     13.68688980
     30.80316327	     -3.24924917	      3.17908733	      3.47202040	      0.13719779	      0.89314749	      0.25182915	     -8.42526391	      2.17760473	      1.18218993	     67.10559578	     67.10559578	    -18.00916903	    -28.37635463	      0.00000000	     24.97785529	      8.55167833	      7.22906748	     21.53778072	     21.53778072	      3.90257080	     -1.37325344	      0.00000000	     -9.27758312	     -6.18165349	     12.58306079
     30.81316327	     -3.31614114	      3.96746739	      4.32235149	      0.13648057	      0.88565679	      0.25082982	     -6.06793013	      0.60420776	     -0.48157032	     72.95870892	     72.95870892	    -15.71878775	    -26.96898154	      0.00000000	     24.97712487	     10.13642772	      7.75258189	     24.76150277	     24.76150277	      3.07589739	     -4.60455511	      0.00000000	     -9.76606765	     -7.22056555	     11.39820768
     30.82316327	     -3.06043150	      5.08336278	      5.18695219	      0.13570645	      0.87799893	      0.24922766	     -4.16083411	     -1.61173796	     -2.09530626	     78.45082614	     78.45082614	    -13.19650007	    -25.10792565	      0.00000000	     24.91172169	     12.01475245	      7.11171880	     29.57241378	     29.57241378	      8.91684595	     -3.90787321	      0.00000000	    -10.75008533	     -8.48196090	      9.93801808
     30.83316327	     -3.08650041	      5.85706109	      6.36732445	      0.13362637	      0.86931541	      0.24766413	     -1.75188987	     -3.54312550	     -3.77940391	     83.77032149	     83.77032149	    -11.70770578	    -24.50832248	      0.00000000	     25.69058139	     13.44371926	      6.23804369	     34.82333381	     34.82333381	     12.43878014	     -3.25827413	      0.00000000	    -11.59360353	     -9.31472468	      8.02138925
     30.84316327	     -3.73686920	      5.58419956	      7.20887099	      0.13023136	      0.85993606	      0.24756919	      1.96153168	     -4.16060035	     -4.49558376	     89.03747808	     89.03747808	     -9.46351634	    -22.89210116	      0.00000000	     27.57501687	     13.58942464	      5.92436835	     40.61772627	     40.61772627	     16.11194190	     -2.63068876	      0.00000000	    -11.67804224	     -9.10092891	      7.08509902
     30.85316327	     -4.28183176	      5.36832000	      8.17382130	      0.12672215	      0.85184785	      0.24751853	      5.67086029	     -4.89714930	     -5.27168700	     93.60842241	     93.60842241	     -8.12938166	    -22.02328676	      0.00000000	     28.76567914	     13.73758009	      6.26260698	     45.53536963	     45.53536963	     19.32000918	     -1.48439130	      0.00000000	    -12.02514541	     -8.92807079	      5.65518308
     30.86316327	     -5.61086915	      5.02290509	      8.67561022	      0.12319626	      0.84409836	      0.24832355	     10.75210686	     -5.44010327	     -5.18842492	     97.89956094	     97.89956094	     -6.66734129	    -20.95873327	      0.00000000	     30.22294421	     13.52896544	      6.34683654	     49.22848371	     49.22848371	     22.09052316	     -0.30962778	      0.00000000	    -11.35373180	     -8.81864335	      5.09208423
